<?xml version="1.0" standalone="no"?>
<!DOCTYPE svg PUBLIC "-//W3C//DTD SVG 20010904//EN"
"http://www.w3.org/TR/2001/REC-SVG-20010904/DTD/svg10.dtd">
<svg version="1.0" xmlns="http://www.w3.org/2000/svg"
width="600.000000pt" height="600.000000pt" viewBox="0 0 300.000000 300.000000"
preserveAspectRatio="xMidYMid meet">
<g transform="translate(-160.000000,450.000000) scale(0.200000,-0.200000)"
fill="#ff9300" stroke="none">
<path d="M1632 1998 l-72 -161 132 -299 132 -298 148 0 147 0 -18 43 c-120
278 -381 859 -390 869 -3 4 -39 -65 -79 -154z"/>
<path d="M1153 2008 c-34 -79 -123 -281 -198 -450 -74 -169 -135 -310 -135
-313 0 -3 62 -4 137 -3 l137 3 63 144 c55 128 63 142 71 120 6 -13 51 -118
102 -234 51 -115 107 -242 124 -281 17 -38 36 -71 41 -72 6 -1 41 66 78 148
l69 149 -147 328 c-81 180 -175 390 -208 465 -34 76 -64 138 -67 138 -3 0 -33
-64 -67 -142z"/>
</g>
</svg>